<svg width="1975" height="1002" viewBox="0 0 1975 1002" fill="none" xmlns="http://www.w3.org/2000/svg">
<g filter="url(#filter0_f_15_16)">
<ellipse cx="1604.5" cy="294.009" rx="70.5" ry="71" fill="#2563EB"/>
</g>
<g filter="url(#filter1_f_15_16)">
<ellipse cx="1605" cy="359.531" rx="170" ry="141.991" fill="#5141DA"/>
</g>
<g filter="url(#filter2_f_15_16)">
<ellipse cx="380.5" cy="350.761" rx="180.5" ry="150.761" fill="#1D4ED8" fill-opacity="0.45"/>
</g>
<g filter="url(#filter3_f_15_16)">
<ellipse cx="1233.5" cy="304.823" rx="65.5" ry="54.7082" fill="#D946EF"/>
</g>
<g filter="url(#filter4_f_15_16)">
<rect x="501" y="650.009" width="81" height="29" fill="#AF51C5"/>
</g>
<path d="M959.632 988.513C956.692 988.513 954.116 987.869 951.904 986.581C949.72 985.293 947.998 983.515 946.738 981.247C945.506 978.951 944.89 976.305 944.89 973.309C944.89 970.313 945.506 967.681 946.738 965.413C947.998 963.117 949.72 961.325 951.904 960.037C954.116 958.749 956.692 958.105 959.632 958.105C962.544 958.105 965.106 958.749 967.318 960.037C969.53 961.325 971.252 963.117 972.484 965.413C973.716 967.681 974.332 970.313 974.332 973.309C974.332 976.305 973.716 978.951 972.484 981.247C971.252 983.515 969.53 985.293 967.318 986.581C965.106 987.869 962.544 988.513 959.632 988.513ZM959.632 983.683C962.432 983.683 964.658 982.759 966.31 980.911C967.99 979.063 968.83 976.529 968.83 973.309C968.83 970.089 967.99 967.555 966.31 965.707C964.658 963.859 962.432 962.935 959.632 962.935C956.832 962.935 954.592 963.859 952.912 965.707C951.232 967.555 950.392 970.089 950.392 973.309C950.392 976.529 951.232 979.063 952.912 980.911C954.592 982.759 956.832 983.683 959.632 983.683ZM986.765 988.513C984.161 988.513 982.145 987.701 980.717 986.077C979.317 984.453 978.617 982.073 978.617 978.937V967.177H983.951V978.433C983.951 980.225 984.315 981.597 985.043 982.549C985.771 983.501 986.919 983.977 988.487 983.977C989.971 983.977 991.189 983.445 992.141 982.381C993.121 981.317 993.611 979.833 993.611 977.929V967.177H998.987V988.009H994.241L993.821 984.481C993.177 985.713 992.239 986.693 991.007 987.421C989.803 988.149 988.389 988.513 986.765 988.513ZM1004.51 988.009V967.177H1009.29L1009.8 971.083C1010.55 969.739 1011.58 968.675 1012.86 967.891C1014.18 967.079 1015.72 966.673 1017.48 966.673V972.343H1015.97C1014.8 972.343 1013.75 972.525 1012.82 972.889C1011.9 973.253 1011.17 973.883 1010.64 974.779C1010.13 975.675 1009.88 976.921 1009.88 978.517V988.009H1004.51ZM1041.33 988.513C1039.17 988.513 1037.27 988.149 1035.62 987.421C1033.97 986.665 1032.66 985.601 1031.71 984.229C1030.76 982.829 1030.27 981.135 1030.24 979.147H1035.91C1035.97 980.519 1036.46 981.681 1037.38 982.633C1038.33 983.557 1039.64 984.019 1041.29 984.019C1042.72 984.019 1043.85 983.683 1044.69 983.011C1045.53 982.311 1045.95 981.387 1045.95 980.239C1045.95 979.035 1045.57 978.097 1044.82 977.425C1044.09 976.753 1043.11 976.207 1041.88 975.787C1040.64 975.367 1039.33 974.919 1037.93 974.443C1035.66 973.659 1033.92 972.651 1032.72 971.419C1031.54 970.187 1030.96 968.549 1030.96 966.505C1030.93 964.769 1031.33 963.285 1032.17 962.053C1033.04 960.793 1034.22 959.827 1035.7 959.155C1037.19 958.455 1038.89 958.105 1040.83 958.105C1042.79 958.105 1044.51 958.455 1045.99 959.155C1047.5 959.855 1048.68 960.835 1049.52 962.095C1050.39 963.355 1050.85 964.853 1050.91 966.589H1045.15C1045.12 965.553 1044.72 964.643 1043.93 963.859C1043.18 963.047 1042.11 962.641 1040.74 962.641C1039.57 962.613 1038.57 962.907 1037.76 963.523C1036.98 964.111 1036.58 964.979 1036.58 966.127C1036.58 967.107 1036.89 967.891 1037.51 968.479C1038.12 969.039 1038.96 969.515 1040.03 969.907C1041.09 970.299 1042.31 970.719 1043.68 971.167C1045.14 971.671 1046.47 972.259 1047.67 972.931C1048.88 973.603 1049.84 974.499 1050.57 975.619C1051.3 976.711 1051.66 978.125 1051.66 979.861C1051.66 981.401 1051.27 982.829 1050.49 984.145C1049.7 985.461 1048.54 986.525 1047 987.337C1045.46 988.121 1043.57 988.513 1041.33 988.513ZM1066.35 988.513C1064.25 988.513 1062.39 988.065 1060.76 987.169C1059.14 986.273 1057.86 985.013 1056.94 983.389C1056.02 981.765 1055.55 979.889 1055.55 977.761C1055.55 975.605 1056 973.687 1056.9 972.007C1057.82 970.327 1059.08 969.025 1060.68 968.101C1062.3 967.149 1064.21 966.673 1066.39 966.673C1068.43 966.673 1070.24 967.121 1071.81 968.017C1073.38 968.913 1074.59 970.145 1075.46 971.713C1076.36 973.253 1076.81 974.975 1076.81 976.879C1076.81 977.187 1076.79 977.509 1076.76 977.845C1076.76 978.181 1076.75 978.531 1076.72 978.895H1060.89C1061 980.519 1061.56 981.793 1062.57 982.717C1063.6 983.641 1064.85 984.103 1066.31 984.103C1067.4 984.103 1068.31 983.865 1069.04 983.389C1069.79 982.885 1070.35 982.241 1070.72 981.457H1076.18C1075.78 982.773 1075.13 983.977 1074.2 985.069C1073.31 986.133 1072.19 986.973 1070.84 987.589C1069.53 988.205 1068.03 988.513 1066.35 988.513ZM1066.39 971.041C1065.07 971.041 1063.91 971.419 1062.9 972.175C1061.9 972.903 1061.25 974.023 1060.97 975.535H1071.35C1071.26 974.163 1070.76 973.071 1069.83 972.259C1068.91 971.447 1067.76 971.041 1066.39 971.041ZM1081.33 988.009V967.177H1086.12L1086.62 971.083C1087.38 969.739 1088.4 968.675 1089.69 967.891C1091 967.079 1092.54 966.673 1094.31 966.673V972.343H1092.79C1091.62 972.343 1090.57 972.525 1089.64 972.889C1088.72 973.253 1087.99 973.883 1087.46 974.779C1086.96 975.675 1086.7 976.921 1086.7 978.517V988.009H1081.33ZM1103.61 988.009L1095.96 967.177H1101.59L1106.88 982.927L1112.18 967.177H1117.8L1110.12 988.009H1103.61ZM1124.09 963.943C1123.11 963.943 1122.3 963.649 1121.66 963.061C1121.04 962.473 1120.73 961.731 1120.73 960.835C1120.73 959.939 1121.04 959.211 1121.66 958.651C1122.3 958.063 1123.11 957.769 1124.09 957.769C1125.07 957.769 1125.87 958.063 1126.49 958.651C1127.13 959.211 1127.45 959.939 1127.45 960.835C1127.45 961.731 1127.13 962.473 1126.49 963.061C1125.87 963.649 1125.07 963.943 1124.09 963.943ZM1121.4 988.009V967.177H1126.78V988.009H1121.4ZM1142.6 988.513C1140.47 988.513 1138.59 988.051 1136.97 987.127C1135.35 986.203 1134.06 984.915 1133.11 983.263C1132.18 981.611 1131.72 979.721 1131.72 977.593C1131.72 975.465 1132.18 973.575 1133.11 971.923C1134.06 970.271 1135.35 968.983 1136.97 968.059C1138.59 967.135 1140.47 966.673 1142.6 966.673C1145.26 966.673 1147.5 967.373 1149.32 968.773C1151.14 970.145 1152.3 972.049 1152.8 974.485H1147.13C1146.85 973.477 1146.29 972.693 1145.45 972.133C1144.64 971.545 1143.68 971.251 1142.56 971.251C1141.07 971.251 1139.81 971.811 1138.78 972.931C1137.74 974.051 1137.22 975.605 1137.22 977.593C1137.22 979.581 1137.74 981.135 1138.78 982.255C1139.81 983.375 1141.07 983.935 1142.56 983.935C1143.68 983.935 1144.64 983.655 1145.45 983.095C1146.29 982.535 1146.85 981.737 1147.13 980.701H1152.8C1152.3 983.053 1151.14 984.943 1149.32 986.371C1147.5 987.799 1145.26 988.513 1142.6 988.513ZM1167.7 988.513C1165.6 988.513 1163.74 988.065 1162.11 987.169C1160.49 986.273 1159.21 985.013 1158.29 983.389C1157.37 981.765 1156.9 979.889 1156.9 977.761C1156.9 975.605 1157.35 973.687 1158.25 972.007C1159.17 970.327 1160.43 969.025 1162.03 968.101C1163.65 967.149 1165.56 966.673 1167.74 966.673C1169.78 966.673 1171.59 967.121 1173.16 968.017C1174.73 968.913 1175.94 970.145 1176.81 971.713C1177.71 973.253 1178.16 974.975 1178.16 976.879C1178.16 977.187 1178.14 977.509 1178.11 977.845C1178.11 978.181 1178.1 978.531 1178.07 978.895H1162.24C1162.35 980.519 1162.91 981.793 1163.92 982.717C1164.95 983.641 1166.2 984.103 1167.66 984.103C1168.75 984.103 1169.66 983.865 1170.39 983.389C1171.14 982.885 1171.7 982.241 1172.07 981.457H1177.53C1177.13 982.773 1176.48 983.977 1175.55 985.069C1174.66 986.133 1173.54 986.973 1172.19 987.589C1170.88 988.205 1169.38 988.513 1167.7 988.513ZM1167.74 971.041C1166.42 971.041 1165.26 971.419 1164.25 972.175C1163.25 972.903 1162.6 974.023 1162.32 975.535H1172.7C1172.61 974.163 1172.11 973.071 1171.18 972.259C1170.26 971.447 1169.11 971.041 1167.74 971.041Z" fill="white"/>
<defs>
<filter id="filter0_f_15_16" x="1334" y="23.0093" width="541" height="542" filterUnits="userSpaceOnUse" color-interpolation-filters="sRGB">
<feFlood flood-opacity="0" result="BackgroundImageFix"/>
<feBlend mode="normal" in="SourceGraphic" in2="BackgroundImageFix" result="shape"/>
<feGaussianBlur stdDeviation="100" result="effect1_foregroundBlur_15_16"/>
</filter>
<filter id="filter1_f_15_16" x="1235" y="17.54" width="740" height="683.982" filterUnits="userSpaceOnUse" color-interpolation-filters="sRGB">
<feFlood flood-opacity="0" result="BackgroundImageFix"/>
<feBlend mode="normal" in="SourceGraphic" in2="BackgroundImageFix" result="shape"/>
<feGaussianBlur stdDeviation="100" result="effect1_foregroundBlur_15_16"/>
</filter>
<filter id="filter2_f_15_16" x="0" y="0" width="761" height="701.522" filterUnits="userSpaceOnUse" color-interpolation-filters="sRGB">
<feFlood flood-opacity="0" result="BackgroundImageFix"/>
<feBlend mode="normal" in="SourceGraphic" in2="BackgroundImageFix" result="shape"/>
<feGaussianBlur stdDeviation="100" result="effect1_foregroundBlur_15_16"/>
</filter>
<filter id="filter3_f_15_16" x="968" y="50.1144" width="531" height="509.416" filterUnits="userSpaceOnUse" color-interpolation-filters="sRGB">
<feFlood flood-opacity="0" result="BackgroundImageFix"/>
<feBlend mode="normal" in="SourceGraphic" in2="BackgroundImageFix" result="shape"/>
<feGaussianBlur stdDeviation="100" result="effect1_foregroundBlur_15_16"/>
</filter>
<filter id="filter4_f_15_16" x="401" y="550.009" width="281" height="229" filterUnits="userSpaceOnUse" color-interpolation-filters="sRGB">
<feFlood flood-opacity="0" result="BackgroundImageFix"/>
<feBlend mode="normal" in="SourceGraphic" in2="BackgroundImageFix" result="shape"/>
<feGaussianBlur stdDeviation="50" result="effect1_foregroundBlur_15_16"/>
</filter>
</defs>
</svg>
